<?xml version="1.0" standalone="no"?>
<!DOCTYPE svg PUBLIC "-//W3C//DTD SVG 20010904//EN"
 "http://www.w3.org/TR/2001/REC-SVG-20010904/DTD/svg10.dtd">
<svg version="1.0" xmlns="http://www.w3.org/2000/svg"
 width="512.000000pt" height="512.000000pt" viewBox="0 0 512.000000 512.000000"
 preserveAspectRatio="xMidYMid meet">

<g transform="translate(0.000000,512.000000) scale(0.100000,-0.100000)"
fill="#000000" stroke="none">
<path d="M214 4446 c-136 -43 -226 -180 -211 -322 11 -103 72 -190 172 -242
l50 -27 277 -3 276 -3 21 -67 c11 -37 99 -339 196 -672 96 -333 182 -623 190
-646 15 -39 46 -64 79 -64 28 0 66 41 66 72 0 44 -417 1468 -439 1498 l-18 25
-311 5 c-294 5 -312 6 -338 26 -51 38 -69 71 -69 129 0 58 18 91 69 129 26 20
41 21 419 24 367 2 394 1 427 -16 19 -11 44 -32 55 -49 12 -16 161 -511 344
-1139 178 -610 330 -1125 338 -1145 8 -20 25 -41 39 -48 18 -8 387 -11 1367
-11 1321 0 1342 0 1375 -20 96 -59 96 -201 0 -260 -33 -20 -54 -20 -1479 -20
l-1446 0 -33 23 c-19 12 -42 36 -51 52 -9 17 -50 143 -89 280 -77 265 -91 295
-142 295 -32 0 -78 -39 -78 -66 0 -24 150 -534 168 -569 31 -63 74 -105 138
-136 63 -31 70 -33 223 -37 l158 -5 -33 -48 c-149 -222 -88 -512 138 -659 82
-54 164 -73 281 -68 85 3 103 8 169 41 174 86 279 263 266 451 -6 87 -35 171
-82 236 l-36 50 455 0 c250 0 455 -3 455 -6 0 -3 -11 -20 -25 -38 -13 -17 -37
-59 -52 -91 -26 -55 -28 -70 -28 -180 0 -118 1 -121 37 -198 50 -103 122 -176
225 -225 71 -33 87 -37 178 -40 82 -3 111 0 163 17 109 37 168 81 238 174 112
150 115 373 9 532 l-34 50 148 6 c129 5 155 9 203 31 68 32 123 86 154 152 33
71 33 181 0 251 -28 61 -83 118 -139 146 -23 12 -43 22 -44 23 -1 1 65 307
145 681 l147 680 56 26 c100 48 169 154 169 259 0 106 -73 216 -172 261 -51
23 -61 24 -301 24 l-249 0 -24 -28 c-30 -35 -30 -59 0 -94 l24 -28 245 -5
c229 -5 247 -6 274 -26 68 -51 66 -158 -4 -211 l-36 -28 -1691 0 -1690 0 -32
110 c-18 61 -35 120 -39 132 l-5 23 1371 2 1371 3 19 24 c24 30 24 72 0 102
l-19 24 -1396 3 -1395 2 -21 70 c-11 39 -30 103 -41 143 -12 39 -29 88 -39
107 -24 46 -84 102 -140 131 -45 24 -45 24 -460 26 -318 2 -425 -1 -456 -11z
m4472 -1283 c-6 -22 -236 -1089 -236 -1097 0 -3 -566 -6 -1257 -6 l-1258 0
-159 548 c-88 301 -161 553 -164 560 -3 9 309 12 1538 12 1463 0 1541 -1 1536
-17z"/>
<path d="M2326 2939 c-25 -20 -26 -24 -26 -123 0 -94 2 -104 23 -124 31 -29
77 -29 105 1 20 21 22 34 22 121 0 90 -2 99 -25 121 -30 30 -64 32 -99 4z"/>
<path d="M3824 2948 c-33 -16 -44 -51 -44 -144 0 -77 2 -87 25 -109 15 -16 36
-25 55 -25 19 0 40 9 55 25 23 22 25 32 25 109 0 95 -11 129 -47 145 -29 13
-41 13 -69 -1z"/>
<path d="M2880 2810 c-13 -13 -20 -33 -20 -57 0 -30 7 -43 41 -74 90 -83 240
-104 354 -51 67 32 125 90 125 126 0 13 -9 35 -21 50 -29 36 -75 35 -124 -4
-33 -26 -90 -50 -120 -50 -30 0 -84 24 -115 50 -42 36 -90 40 -120 10z"/>
</g>
</svg>
